<svg width="64" height="64" viewBox="0 0 64 64" fill="none" xmlns="http://www.w3.org/2000/svg">
  <circle cx="32" cy="32" r="32" fill="#26732D"/>
  <g fill="#FFC107">
    <!-- Cat silhouette -->
    <path d="M20 24c-2 0-4 1-4 3v8c0 4 2 6 4 6h4c0 2 1 3 2 3h12c1 0 2-1 2-3h4c2 0 4-2 4-6v-8c0-2-2-3-4-3l-2-2c-1-1-2-1-3 0l-1 1h-8l-1-1c-1-1-2-1-3 0l-2 2h-4z"/>
    <!-- Cat ears -->
    <path d="M18 22c0-1 1-2 2-2s2 1 2 2-1 2-2 2-2-1-2-2zM42 22c0-1 1-2 2-2s2 1 2 2-1 2-2 2-2-1-2-2z"/>
    <!-- Cat eyes -->
    <circle cx="26" cy="28" r="2" fill="#26732D"/>
    <circle cx="38" cy="28" r="2" fill="#26732D"/>
    <!-- Cat nose -->
    <path d="M32 32l-2 2h4l-2-2z" fill="#26732D"/>
  </g>
  <!-- Text -->
  <text x="32" y="52" text-anchor="middle" fill="white" font-family="Arial, sans-serif" font-size="8" font-weight="bold">MEOW</text>
</svg>